<svg width="463" height="294" viewBox="0 0 463 294" fill="none" xmlns="http://www.w3.org/2000/svg">
<path d="M450.483 293.671H12.1265C5.71746 293.671 0.522461 288.476 0.522461 282.067V11.9595C0.522461 5.55047 5.71746 0.355469 12.1265 0.355469H450.484C456.893 0.355469 462.088 5.55047 462.088 11.9595V282.067C462.087 288.476 456.892 293.671 450.483 293.671Z" fill="#839FF2"/>
<path d="M432.987 277.693H29.7534C23.2294 277.693 17.9404 272.404 17.9404 265.879V29.3286C17.9404 22.8046 23.2294 17.5156 29.7534 17.5156H432.986C439.51 17.5156 444.8 22.8046 444.8 29.3286V265.879C444.8 272.404 439.511 277.693 432.987 277.693Z" fill="#3E579E"/>
<path d="M49.4695 277.693H29.5685C23.1455 277.693 17.9395 272.486 17.9395 266.064V29.2266C17.9395 22.7586 23.1825 17.5156 29.6505 17.5156H49.4695V277.693Z" fill="#486BD4"/>
<path d="M444.801 49.8008H49.4697V50.8008H444.801V49.8008Z" fill="#486BD4"/>
<path d="M173.056 50.3008H172.056V277.694H173.056V50.3008Z" fill="#486BD4"/>
<path d="M314.958 50.3008H313.958V277.694H314.958V50.3008Z" fill="#486BD4"/>
<path d="M25.9917 33.1455C27.1763 33.1455 28.1367 32.1851 28.1367 31.0005C28.1367 29.8158 27.1763 28.8555 25.9917 28.8555C24.807 28.8555 23.8467 29.8158 23.8467 31.0005C23.8467 32.1851 24.807 33.1455 25.9917 33.1455Z" fill="#FFCF80"/>
<path d="M33.7046 33.1435C34.8887 33.1435 35.8485 32.1836 35.8485 30.9995C35.8485 29.8154 34.8887 28.8555 33.7046 28.8555C32.5205 28.8555 31.5605 29.8154 31.5605 30.9995C31.5605 32.1836 32.5205 33.1435 33.7046 33.1435Z" fill="#839FF2"/>
<path d="M43.5625 31.0005C43.5625 32.1845 42.6025 33.1455 41.4175 33.1455C40.2335 33.1455 39.2725 32.1855 39.2725 31.0005C39.2725 29.8155 40.2325 28.8555 41.4175 28.8555C42.6025 28.8555 43.5625 29.8155 43.5625 31.0005Z" fill="#F56C7C"/>
<path d="M44.4343 57.1847H23.8843C22.8133 57.1847 21.9443 56.3157 21.9443 55.2447C21.9443 54.1737 22.8133 53.3047 23.8843 53.3047H44.4343C45.5053 53.3047 46.3743 54.1737 46.3743 55.2447C46.3743 56.3157 45.5053 57.1847 44.4343 57.1847Z" fill="#7A9CFF"/>
<path d="M44.4343 64.9308H23.8843C22.8133 64.9308 21.9443 64.0628 21.9443 62.9908C21.9443 61.9198 22.8133 61.0508 23.8843 61.0508H44.4343C45.5053 61.0508 46.3743 61.9188 46.3743 62.9908C46.3743 64.0618 45.5053 64.9308 44.4343 64.9308Z" fill="#7A9CFF"/>
<path d="M44.4343 93.4308H23.8843C22.8133 93.4308 21.9443 92.5628 21.9443 91.4908C21.9443 90.4198 22.8133 89.5508 23.8843 89.5508H44.4343C45.5053 89.5508 46.3743 90.4188 46.3743 91.4908C46.3743 92.5628 45.5053 93.4308 44.4343 93.4308Z" fill="#7A9CFF"/>
<path d="M44.4343 131.095H23.8843C22.8133 131.095 21.9443 130.226 21.9443 129.155C21.9443 128.084 22.8133 127.215 23.8843 127.215H44.4343C45.5053 127.215 46.3743 128.084 46.3743 129.155C46.3743 130.226 45.5053 131.095 44.4343 131.095Z" fill="#7A9CFF"/>
<path d="M44.4343 152.786H23.8843C22.8133 152.786 21.9443 151.918 21.9443 150.846C21.9443 149.775 22.8133 148.906 23.8843 148.906H44.4343C45.5053 148.906 46.3743 149.774 46.3743 150.846C46.3743 151.918 45.5053 152.786 44.4343 152.786Z" fill="#7A9CFF"/>
<path d="M44.4343 145.403H23.8843C22.8133 145.403 21.9443 144.535 21.9443 143.463C21.9443 142.392 22.8133 141.523 23.8843 141.523H44.4343C45.5053 141.523 46.3743 142.391 46.3743 143.463C46.3743 144.534 45.5053 145.403 44.4343 145.403Z" fill="#7A9CFF"/>
<path d="M44.4343 200.321H23.8843C22.8133 200.321 21.9443 199.452 21.9443 198.381C21.9443 197.31 22.8133 196.441 23.8843 196.441H44.4343C45.5053 196.441 46.3743 197.31 46.3743 198.381C46.3743 199.453 45.5053 200.321 44.4343 200.321Z" fill="#7A9CFF"/>
<path d="M44.4343 207.032H23.8843C22.8133 207.032 21.9443 206.163 21.9443 205.092C21.9443 204.021 22.8133 203.152 23.8843 203.152H44.4343C45.5053 203.152 46.3743 204.021 46.3743 205.092C46.3743 206.164 45.5053 207.032 44.4343 207.032Z" fill="#7A9CFF"/>
<path d="M44.4343 238.825H23.8843C22.8133 238.825 21.9443 237.957 21.9443 236.885C21.9443 235.814 22.8133 234.945 23.8843 234.945H44.4343C45.5053 234.945 46.3743 235.814 46.3743 236.885C46.3743 237.956 45.5053 238.825 44.4343 238.825Z" fill="#7A9CFF"/>
<path d="M44.4343 192.939H23.8843C22.8133 192.939 21.9443 192.07 21.9443 190.999C21.9443 189.928 22.8133 189.059 23.8843 189.059H44.4343C45.5053 189.059 46.3743 189.928 46.3743 190.999C46.3743 192.07 45.5053 192.939 44.4343 192.939Z" fill="#7A9CFF"/>
<path d="M95.6227 30.1001H91.7147V40.9471H90.1197V30.1001H86.2207V28.7891H95.6227V30.1001Z" fill="white"/>
<path d="M95.9473 36.3471C95.9473 35.4621 96.1213 34.6661 96.4693 33.9591C96.8173 33.2521 97.3013 32.7061 97.9223 32.3221C98.5433 31.9381 99.2513 31.7461 100.048 31.7461C101.278 31.7461 102.273 32.1721 103.033 33.0241C103.793 33.8761 104.173 35.0081 104.173 36.4221V36.5301C104.173 37.4091 104.005 38.1981 103.668 38.8971C103.331 39.5961 102.85 40.1401 102.223 40.5291C101.597 40.9191 100.877 41.1131 100.065 41.1131C98.8403 41.1131 97.8483 40.6871 97.0883 39.8361C96.3283 38.9841 95.9483 37.8571 95.9483 36.4541L95.9473 36.3471ZM97.5003 36.5311C97.5003 37.5331 97.7323 38.3371 98.1973 38.9441C98.6613 39.5511 99.2833 39.8541 100.063 39.8541C100.848 39.8541 101.471 39.5461 101.933 38.9311C102.395 38.3161 102.626 37.4541 102.626 36.3471C102.626 35.3561 102.391 34.5531 101.92 33.9381C101.449 33.3231 100.824 33.0151 100.046 33.0151C99.2833 33.0151 98.6683 33.3191 98.2003 33.9251C97.7343 34.5321 97.5003 35.4011 97.5003 36.5311Z" fill="white"/>
<path d="M109.968 36.3541C109.968 34.9681 110.296 33.8531 110.953 33.0101C111.61 32.1671 112.47 31.7451 113.533 31.7451C114.591 31.7451 115.429 32.1071 116.047 32.8301V28.1211H117.591V40.9461H116.172L116.097 39.9771C115.479 40.7341 114.619 41.1131 113.517 41.1131C112.471 41.1131 111.618 40.6841 110.958 39.8271C110.298 38.9701 109.969 37.8511 109.969 36.4701V36.3541H109.968ZM111.512 36.5301C111.512 37.5541 111.724 38.3561 112.147 38.9351C112.57 39.5141 113.154 39.8031 113.9 39.8031C114.879 39.8031 115.595 39.3641 116.046 38.4841V34.3341C115.584 33.4821 114.874 33.0571 113.917 33.0571C113.16 33.0571 112.57 33.3501 112.147 33.9341C111.724 34.5181 111.512 35.3831 111.512 36.5301Z" fill="white"/>
<path d="M119.578 36.3471C119.578 35.4621 119.752 34.6661 120.1 33.9591C120.448 33.2521 120.932 32.7061 121.553 32.3221C122.174 31.9381 122.882 31.7461 123.678 31.7461C124.908 31.7461 125.903 32.1721 126.663 33.0241C127.423 33.8761 127.803 35.0081 127.803 36.4221V36.5301C127.803 37.4091 127.635 38.1981 127.298 38.8971C126.961 39.5961 126.48 40.1401 125.853 40.5291C125.227 40.9191 124.507 41.1131 123.695 41.1131C122.47 41.1131 121.478 40.6871 120.718 39.8361C119.958 38.9841 119.578 37.8571 119.578 36.4541V36.3471ZM121.131 36.5311C121.131 37.5331 121.363 38.3371 121.828 38.9441C122.292 39.5511 122.915 39.8541 123.694 39.8541C124.479 39.8541 125.102 39.5461 125.564 38.9311C126.026 38.3161 126.257 37.4541 126.257 36.3471C126.257 35.3561 126.022 34.5531 125.551 33.9381C125.08 33.3231 124.455 33.0151 123.676 33.0151C122.913 33.0151 122.298 33.3191 121.83 33.9251C121.365 34.5321 121.131 35.4011 121.131 36.5311Z" fill="white"/>
<path d="M221.06 40.9471V28.7891H224.492C225.55 28.7891 226.485 29.0221 227.298 29.4901C228.111 29.9581 228.738 30.6231 229.181 31.4861C229.624 32.3491 229.848 33.3401 229.853 34.4591V35.2351C229.853 36.3821 229.632 37.3871 229.189 38.2501C228.747 39.1131 228.115 39.7751 227.294 40.2371C226.473 40.6991 225.517 40.9361 224.426 40.9471H221.06ZM222.663 30.1001V39.6361H224.35C225.585 39.6361 226.547 39.2521 227.235 38.4831C227.923 37.7141 228.266 36.6201 228.266 35.1991V34.4891C228.266 33.1071 227.942 32.0331 227.293 31.2671C226.644 30.5011 225.724 30.1121 224.533 30.1011L222.663 30.1001Z" fill="white"/>
<path d="M231.621 36.3471C231.621 35.4621 231.795 34.6661 232.142 33.9591C232.491 33.2521 232.975 32.7061 233.595 32.3221C234.216 31.9381 234.924 31.7461 235.72 31.7461C236.95 31.7461 237.946 32.1721 238.705 33.0241C239.465 33.8761 239.845 35.0081 239.845 36.4221V36.5301C239.845 37.4091 239.677 38.1981 239.34 38.8971C239.003 39.5961 238.522 40.1401 237.896 40.5291C237.269 40.9191 236.55 41.1131 235.737 41.1131C234.512 41.1131 233.52 40.6871 232.76 39.8361C232 38.9841 231.62 37.8571 231.62 36.4541V36.3471H231.621ZM233.174 36.5311C233.174 37.5331 233.406 38.3371 233.871 38.9441C234.336 39.5511 234.958 39.8541 235.737 39.8541C236.522 39.8541 237.145 39.5461 237.608 38.9311C238.07 38.3161 238.3 37.4541 238.3 36.3471C238.3 35.3561 238.065 34.5531 237.595 33.9381C237.124 33.3231 236.499 33.0151 235.72 33.0151C234.957 33.0151 234.342 33.3191 233.875 33.9251C233.408 34.5321 233.174 35.4011 233.174 36.5311Z" fill="white"/>
<path d="M241.793 29.518C241.793 29.267 241.869 29.056 242.022 28.884C242.174 28.711 242.402 28.625 242.703 28.625C243.003 28.625 243.231 28.711 243.388 28.884C243.543 29.056 243.621 29.268 243.621 29.518C243.621 29.768 243.543 29.977 243.388 30.144C243.232 30.311 243.003 30.395 242.703 30.395C242.402 30.395 242.175 30.311 242.022 30.144C241.869 29.977 241.793 29.768 241.793 29.518ZM243.463 40.949H241.918V31.914H243.463V40.949Z" fill="white"/>
<path d="M247.395 31.9131L247.446 33.0491C248.135 32.1801 249.038 31.7461 250.151 31.7461C252.06 31.7461 253.023 32.8231 253.04 34.9771V40.9471H251.496V34.9681C251.49 34.3171 251.341 33.8351 251.049 33.5241C250.757 33.2121 250.302 33.0561 249.684 33.0561C249.183 33.0561 248.744 33.1901 248.365 33.4571C247.986 33.7241 247.691 34.0751 247.48 34.5091V40.9471H245.935V31.9121L247.395 31.9131Z" fill="white"/>
<path d="M255.002 36.3551C255.002 34.9471 255.327 33.8261 255.978 32.9941C256.629 32.1621 257.493 31.7461 258.567 31.7461C259.669 31.7461 260.529 32.1361 261.147 32.9151L261.222 31.9131H262.633V40.7301C262.633 41.8991 262.286 42.8201 261.593 43.4941C260.901 44.1671 259.969 44.5041 258.8 44.5041C258.149 44.5041 257.512 44.3651 256.888 44.0871C256.265 43.8091 255.788 43.4271 255.46 42.9431L256.262 42.0161C256.924 42.8341 257.735 43.2441 258.692 43.2441C259.444 43.2441 260.029 43.0321 260.45 42.6091C260.87 42.1861 261.08 41.5901 261.08 40.8221V40.0461C260.463 40.7591 259.619 41.1151 258.551 41.1151C257.493 41.1151 256.637 40.6891 255.983 39.8381C255.329 38.9851 255.002 37.8251 255.002 36.3551ZM256.555 36.5311C256.555 37.5501 256.764 38.3501 257.181 38.9311C257.599 39.5131 258.183 39.8041 258.935 39.8041C259.909 39.8041 260.624 39.3621 261.081 38.4761V34.3521C260.608 33.4891 259.898 33.0571 258.952 33.0571C258.201 33.0571 257.613 33.3501 257.19 33.9341C256.767 34.5191 256.555 35.3841 256.555 36.5311Z" fill="white"/>
<path d="M364.528 40.9471V28.7891H367.96C369.018 28.7891 369.953 29.0221 370.766 29.4901C371.579 29.9581 372.206 30.6231 372.649 31.4861C373.091 32.3491 373.316 33.3401 373.321 34.4591V35.2351C373.321 36.3821 373.1 37.3871 372.658 38.2501C372.216 39.1131 371.584 39.7751 370.762 40.2371C369.941 40.6991 368.985 40.9361 367.894 40.9471H364.528ZM366.132 30.1001V39.6361H367.819C369.054 39.6361 370.016 39.2521 370.704 38.4831C371.392 37.7141 371.735 36.6201 371.735 35.1991V34.4891C371.735 33.1071 371.411 32.0331 370.762 31.2671C370.114 30.5011 369.194 30.1121 368.002 30.1011L366.132 30.1001Z" fill="white"/>
<path d="M375.091 36.3471C375.091 35.4621 375.265 34.6661 375.612 33.9591C375.961 33.2521 376.445 32.7061 377.065 32.3221C377.686 31.9381 378.394 31.7461 379.19 31.7461C380.42 31.7461 381.416 32.1721 382.175 33.0241C382.935 33.8761 383.315 35.0081 383.315 36.4221V36.5301C383.315 37.4091 383.147 38.1981 382.81 38.8971C382.473 39.5961 381.992 40.1401 381.366 40.5291C380.739 40.9191 380.02 41.1131 379.207 41.1131C377.982 41.1131 376.99 40.6871 376.23 39.8361C375.47 38.9841 375.09 37.8571 375.09 36.4541V36.3471H375.091ZM376.644 36.5311C376.644 37.5331 376.876 38.3371 377.341 38.9441C377.806 39.5511 378.428 39.8541 379.207 39.8541C379.992 39.8541 380.615 39.5461 381.078 38.9311C381.54 38.3161 381.77 37.4541 381.77 36.3471C381.77 35.3561 381.535 34.5531 381.065 33.9381C380.594 33.3231 379.969 33.0151 379.19 33.0151C378.427 33.0151 377.812 33.3191 377.345 33.9251C376.878 34.5321 376.644 35.4011 376.644 36.5311Z" fill="white"/>
<path d="M386.714 31.9131L386.765 33.0491C387.455 32.1801 388.357 31.7461 389.47 31.7461C391.379 31.7461 392.342 32.8231 392.359 34.9771V40.9471H390.815V34.9681C390.809 34.3171 390.66 33.8351 390.368 33.5241C390.076 33.2121 389.621 33.0561 389.003 33.0561C388.502 33.0561 388.062 33.1901 387.684 33.4571C387.306 33.7241 387.01 34.0751 386.799 34.5091V40.9471H385.254V31.9121L386.714 31.9131Z" fill="white"/>
<path d="M398.438 41.1131C397.213 41.1131 396.217 40.7111 395.449 39.9071C394.681 39.1031 394.297 38.0271 394.297 36.6801V36.3961C394.297 35.5001 394.468 34.7001 394.811 33.9961C395.154 33.2921 395.632 32.7411 396.247 32.3431C396.861 31.9451 397.528 31.7461 398.246 31.7461C399.421 31.7461 400.334 32.1331 400.985 32.9071C401.636 33.6811 401.962 34.7891 401.962 36.2301V36.8731H395.842C395.864 37.7641 396.124 38.4831 396.622 39.0311C397.121 39.5791 397.754 39.8541 398.522 39.8541C399.067 39.8541 399.529 39.7431 399.908 39.5201C400.287 39.2971 400.618 39.0021 400.901 38.6351L401.845 39.3701C401.087 40.5311 399.952 41.1131 398.438 41.1131ZM398.245 33.0131C397.622 33.0131 397.099 33.2401 396.676 33.6941C396.253 34.1481 395.991 34.7841 395.891 35.6021H400.417V35.4851C400.372 34.7001 400.16 34.0921 399.782 33.6611C399.403 33.2291 398.892 33.0131 398.245 33.0131Z" fill="white"/>
<path d="M100.569 101.088L60.457 97.7618C66.415 94.2818 65.364 65.8828 65.364 65.8828H100.569V101.088Z" fill="#4973ED"/>
<path d="M151.593 116.446C151.593 116.446 126.616 122.125 112.74 116.998V84.8008H144.937C146.846 104.221 148.813 110.389 151.593 116.446Z" fill="#C43D4D"/>
<path d="M92.654 146.879H60.457V179.076H92.654V146.879Z" fill="white"/>
<path d="M305.885 93.7608L273.972 89.4883L269.699 121.402L301.613 125.674L305.885 93.7608Z" fill="white"/>
<path d="M159.012 209.232C159.012 209.232 127.926 207.628 125.089 201.465L131.372 173.047L163.284 177.319L159.012 209.232Z" fill="#FAEBD6"/>
<path d="M239.17 84.4017L207.121 87.4766L210.196 119.525L242.245 116.451L239.17 84.4017Z" fill="#97DADE"/>
<path d="M224.629 69.8482L190.954 65.3398L186.446 99.0149L220.121 103.523L224.629 69.8482Z" fill="#FAEBD6"/>
<path d="M265.545 235.074H233.348V267.271H265.545V235.074Z" fill="#97DADE"/>
<path d="M389.002 257.618C389.002 257.618 372.876 267.546 346.058 256.993L348.286 223.613L384.415 225.841C384.415 225.841 382.798 253.648 389.002 257.618Z" fill="#97DADE"/>
<path d="M355.961 136.857L323.815 138.676L325.635 170.821L357.78 169.002L355.961 136.857Z" fill="#FAEBD6"/>
<path d="M428.672 160.254H396.475V192.451H428.672V160.254Z" fill="#FFC057"/>
<path d="M405.101 103.281H372.904V135.478H405.101V103.281Z" fill="white"/>
<path d="M295.044 217.395L260.522 220.707L263.834 255.228L298.356 251.916L295.044 217.395Z" fill="#4973ED"/>
<path d="M363.117 89.1669C347.396 96.6789 323.998 93.3629 323.998 93.3629C328.581 85.9639 326.528 58.8359 326.528 58.8359H358.725L363.117 89.1669Z" fill="#97DADE"/>
<path d="M289.505 61.14L257.456 64.2148L260.531 96.2637L292.58 93.1889L289.505 61.14Z" fill="#FFC057"/>
<path d="M427.048 76.8275L394.999 79.9023L398.074 111.951L430.123 108.876L427.048 76.8275Z" fill="#C43D4D"/>
<path d="M419.138 102.197L413.134 99.8804L407.822 103.512L408.17 97.0864L403.074 93.1564L409.293 91.5024L411.456 85.4414L414.951 90.8454L421.384 91.0294L417.325 96.0234L419.138 102.197Z" fill="white"/>
<path d="M246.917 144.899L214.833 142.191L212.125 174.276L244.21 176.983L246.917 144.899Z" fill="#FFC057"/>
<path d="M228.682 159.1L224.404 156.488L219.828 158.531L220.99 153.656L217.633 149.935L222.629 149.534L225.13 145.191L227.055 149.818L231.959 150.855L228.153 154.116L228.682 159.1Z" fill="white"/>
<path d="M237.784 174.62L233.507 172.008L228.93 174.051L230.092 169.176L226.735 165.455L231.731 165.053L234.233 160.711L236.158 165.338L241.061 166.375L237.255 169.636L237.784 174.62Z" fill="white"/>
<path d="M195.124 72.8862C203.1 74.6212 211.265 75.2862 219.241 77.0202C219.711 77.1222 219.913 76.4002 219.44 76.2972C211.464 74.5622 203.299 73.8972 195.323 72.1622C194.853 72.0602 194.652 72.7832 195.124 72.8862Z" fill="#3E579E"/>
<path d="M193.584 76.3424C201.56 78.0774 209.725 78.7424 217.701 80.4764C218.171 80.5784 218.373 79.8564 217.9 79.7534C209.924 78.0184 201.759 77.3534 193.783 75.6194C193.313 75.5164 193.111 76.2394 193.584 76.3424Z" fill="#3E579E"/>
<path d="M291.763 204.114C287.623 209.334 257.24 202.01 257.24 202.01L261.512 170.098L293.424 174.37L291.763 204.114Z" fill="white"/>
<path d="M267.457 178.267C273.771 179.173 280.084 180.08 286.397 180.986C286.869 181.054 287.073 180.331 286.596 180.263C280.282 179.356 273.969 178.45 267.655 177.544C267.184 177.476 266.98 178.199 267.457 178.267Z" fill="#3E579E"/>
<path d="M266.599 182.524C268.66 183.02 270.767 183.305 272.886 183.375C273.369 183.391 273.368 182.641 272.886 182.625C270.832 182.557 268.797 182.282 266.799 181.801C266.33 181.689 266.13 182.412 266.599 182.524Z" fill="#3E579E"/>
<path d="M265.733 191.191C272.178 192.367 278.703 193.035 285.253 193.182C285.736 193.193 285.736 192.443 285.253 192.432C278.769 192.286 272.312 191.632 265.932 190.468C265.46 190.382 265.258 191.105 265.733 191.191Z" fill="#3E579E"/>
<path d="M266.689 194.78C272.465 195.397 278.241 196.014 284.017 196.631C284.496 196.682 284.493 195.932 284.017 195.881C278.241 195.264 272.465 194.647 266.689 194.03C266.209 193.979 266.213 194.729 266.689 194.78Z" fill="#3E579E"/>
<path d="M120.325 130.125H88.1279V162.322H120.325V130.125Z" fill="#97DADE"/>
<path d="M92.8836 137.017C100.223 137.177 107.562 137.337 114.901 137.497C115.313 137.506 115.426 136.83 115.001 136.76C114.818 136.73 114.636 136.7 114.453 136.67C113.981 136.593 113.778 137.315 114.254 137.393C114.437 137.423 114.619 137.453 114.802 137.483C114.835 137.237 114.868 136.992 114.902 136.746C107.563 136.586 100.224 136.426 92.8846 136.266C92.4006 136.257 92.4006 137.007 92.8836 137.017Z" fill="#3E579E"/>
<path d="M93.6148 141.31C100.77 141.399 107.926 141.488 115.081 141.576C115.482 141.581 115.552 141.083 115.27 140.877C115.152 140.79 115.033 140.704 114.915 140.618C114.525 140.333 114.15 140.983 114.537 141.266C114.655 141.353 114.774 141.439 114.892 141.525C114.955 141.292 115.018 141.059 115.081 140.826C107.926 140.737 100.77 140.648 93.6148 140.56C93.1328 140.554 93.1318 141.304 93.6148 141.31Z" fill="#3E579E"/>
<path d="M93.3713 144.489C97.4353 144.672 101.505 144.673 105.569 144.491C106.05 144.47 106.052 143.719 105.569 143.741C101.505 143.923 97.4353 143.922 93.3713 143.739C92.8883 143.717 92.8903 144.467 93.3713 144.489Z" fill="#3E579E"/>
<path d="M93.985 154.94C100.713 155.623 107.475 155.873 114.235 155.691C114.608 155.681 114.744 155.189 114.424 154.992C114.302 154.917 114.181 154.842 114.059 154.767C113.647 154.513 113.27 155.162 113.68 155.415C113.802 155.49 113.923 155.565 114.045 155.64C114.108 155.407 114.171 155.174 114.234 154.941C107.474 155.124 100.712 154.873 93.984 154.19C93.505 154.141 93.508 154.892 93.985 154.94Z" fill="#3E579E"/>
<path d="M399.727 179.348H367.53V211.545H399.727V179.348Z" fill="#97DADE"/>
<path d="M372.286 186.239C379.625 186.399 386.964 186.559 394.303 186.719C394.715 186.728 394.828 186.052 394.403 185.982C394.22 185.952 394.038 185.922 393.855 185.892C393.383 185.815 393.18 186.537 393.656 186.615C393.839 186.645 394.021 186.675 394.204 186.705C394.237 186.46 394.27 186.214 394.304 185.968C386.965 185.808 379.626 185.648 372.287 185.488C371.803 185.479 371.803 186.229 372.286 186.239Z" fill="#3E579E"/>
<path d="M373.018 190.533C380.173 190.622 387.329 190.711 394.484 190.799C394.885 190.804 394.955 190.307 394.673 190.1C394.555 190.013 394.436 189.927 394.318 189.84C393.928 189.555 393.553 190.205 393.939 190.488C394.057 190.575 394.176 190.661 394.294 190.748C394.357 190.515 394.42 190.282 394.483 190.049C387.328 189.96 380.172 189.871 373.017 189.783C372.535 189.777 372.535 190.527 373.018 190.533Z" fill="#3E579E"/>
<path d="M372.774 193.711C376.838 193.894 380.908 193.895 384.972 193.713C385.453 193.691 385.455 192.941 384.972 192.963C380.908 193.145 376.838 193.144 372.774 192.961C372.291 192.939 372.293 193.689 372.774 193.711Z" fill="#3E579E"/>
<path d="M373.387 204.162C380.115 204.845 386.877 205.095 393.637 204.913C394.01 204.903 394.146 204.411 393.826 204.214C393.704 204.139 393.583 204.064 393.461 203.989C393.049 203.735 392.672 204.384 393.082 204.637C393.204 204.712 393.325 204.787 393.447 204.862C393.51 204.629 393.573 204.396 393.636 204.163C386.876 204.346 380.114 204.095 373.386 203.412C372.907 203.364 372.91 204.114 373.387 204.162Z" fill="#3E579E"/>
<path d="M331.674 65.4453C339.122 65.4003 346.558 64.9193 353.95 64.0033C354.423 63.9443 354.429 63.1943 353.95 63.2533C346.558 64.1693 339.122 64.6503 331.674 64.6953C331.191 64.6983 331.19 65.4483 331.674 65.4453Z" fill="#3E579E"/>
<path d="M332.097 69.2289C336.09 69.4649 340.091 69.4579 344.083 69.2079C344.562 69.1779 344.566 68.4279 344.083 68.4579C340.091 68.7079 336.09 68.7149 332.097 68.4789C331.615 68.4509 331.617 69.2009 332.097 69.2289Z" fill="#3E579E"/>
<path d="M331.99 74.8301C339.244 75.3171 346.52 75.1601 353.746 74.3621C354.22 74.3101 354.226 73.5591 353.746 73.6121C346.52 74.4101 339.243 74.5671 331.99 74.0801C331.508 74.0481 331.51 74.7981 331.99 74.8301Z" fill="#3E579E"/>
<path d="M332.514 88.3552C340.248 88.2932 347.969 87.7652 355.64 86.7732C356.112 86.7122 356.118 85.9612 355.64 86.0232C347.969 87.0152 340.249 87.5432 332.514 87.6052C332.032 87.6092 332.03 88.3592 332.514 88.3552Z" fill="#3E579E"/>
<path d="M134.46 259.561C118.739 267.073 95.3408 263.757 95.3408 263.757C99.9238 256.358 97.8708 229.23 97.8708 229.23H130.068L134.46 259.561Z" fill="#97DADE"/>
<path d="M103.017 235.84C110.465 235.795 117.901 235.314 125.293 234.398C125.766 234.339 125.772 233.589 125.293 233.648C117.901 234.564 110.465 235.045 103.017 235.09C102.534 235.093 102.533 235.843 103.017 235.84Z" fill="#3E579E"/>
<path d="M103.44 239.623C107.433 239.859 111.434 239.852 115.426 239.602C115.905 239.572 115.909 238.822 115.426 238.852C111.434 239.102 107.433 239.109 103.44 238.873C102.957 238.844 102.959 239.595 103.44 239.623Z" fill="#3E579E"/>
<path d="M236.766 218.984L204.717 222.059L207.792 254.108L239.84 251.033L236.766 218.984Z" fill="#C43D4D"/>
<path d="M209.443 228.319C217.495 227.794 225.546 227.269 233.598 226.743C234.077 226.712 234.081 225.962 233.598 225.993C225.546 226.518 217.495 227.043 209.443 227.569C208.964 227.601 208.96 228.351 209.443 228.319Z" fill="white"/>
<path d="M210.69 230.937C216.289 230.429 221.889 229.92 227.488 229.412C227.965 229.369 227.969 228.618 227.488 228.662C221.889 229.17 216.289 229.679 210.69 230.187C210.213 230.23 210.209 230.98 210.69 230.937Z" fill="white"/>
<path d="M210.682 235.566C216.379 235.642 222.074 235.392 227.743 234.819C228.219 234.771 228.224 234.02 227.743 234.069C222.074 234.643 216.379 234.892 210.682 234.816C210.199 234.81 210.199 235.56 210.682 235.566Z" fill="white"/>
<path d="M211.685 247.611C219.655 247.018 227.624 246.426 235.594 245.833C236.072 245.797 236.076 245.047 235.594 245.083C227.624 245.676 219.655 246.268 211.685 246.861C211.206 246.897 211.202 247.647 211.685 247.611Z" fill="white"/>
<path d="M212.925 250.294C216.038 250.044 219.152 249.794 222.265 249.544C222.743 249.506 222.747 248.755 222.265 248.794C219.152 249.044 216.038 249.294 212.925 249.544C212.447 249.582 212.443 250.333 212.925 250.294Z" fill="white"/>
<path d="M76.835 74.771C82.385 75.22 87.95 75.439 93.518 75.428C93.518 75.178 93.518 74.928 93.518 74.678C93.349 74.695 93.18 74.712 93.012 74.729C92.536 74.777 92.531 75.527 93.012 75.479C93.181 75.462 93.35 75.445 93.518 75.428C93.988 75.381 94.011 74.677 93.518 74.678C87.95 74.69 82.385 74.47 76.835 74.021C76.353 73.982 76.356 74.732 76.835 74.771Z" fill="white"/>
<path d="M77.2425 78.7218C82.5205 79.3458 87.8335 79.5818 93.1465 79.4268C93.1465 79.1768 93.1465 78.9268 93.1465 78.6768C92.9695 78.6868 92.7915 78.6958 92.6145 78.7058C92.1345 78.7318 92.1315 79.4818 92.6145 79.4558C92.7915 79.4458 92.9695 79.4368 93.1465 79.4268C93.6255 79.4008 93.6315 78.6628 93.1465 78.6768C87.8345 78.8318 82.5205 78.5958 77.2425 77.9718C76.7635 77.9148 76.7675 78.6658 77.2425 78.7218Z" fill="white"/>
<path d="M77.1411 89.9734C82.4031 90.7134 87.6981 91.1714 93.0091 91.3364C93.4921 91.3514 93.4911 90.6014 93.0091 90.5864C87.7661 90.4244 82.5351 89.9814 77.3401 89.2504C76.8681 89.1844 76.6641 89.9064 77.1411 89.9734Z" fill="white"/>
<path d="M76.8901 93.5826C82.5411 94.3606 88.2391 94.6616 93.9401 94.4656C94.4211 94.4496 94.4241 93.6986 93.9401 93.7156C88.3091 93.9096 82.6711 93.6286 77.0891 92.8596C76.6171 92.7946 76.4131 93.5166 76.8901 93.5826Z" fill="white"/>
<path d="M74.32 72.5898H68.251V78.6588H74.32V72.5898Z" fill="white"/>
<path d="M74.4995 87.7004L68.4414 87.332L68.073 93.3901L74.1311 93.7585L74.4995 87.7004Z" fill="white"/>
<path d="M222.883 200.791L182.771 197.465C188.729 193.985 187.678 165.586 187.678 165.586H222.883V200.791Z" fill="#4973ED"/>
<path d="M199.148 174.478C204.698 174.927 210.263 175.146 215.831 175.135C215.831 174.885 215.831 174.635 215.831 174.385C215.662 174.402 215.494 174.419 215.325 174.436C214.849 174.484 214.844 175.234 215.325 175.186C215.494 175.169 215.662 175.152 215.831 175.135C216.301 175.088 216.324 174.384 215.831 174.385C210.263 174.397 204.698 174.177 199.148 173.728C198.666 173.689 198.669 174.439 199.148 174.478Z" fill="white"/>
<path d="M199.557 178.425C204.835 179.049 210.148 179.285 215.461 179.13C215.461 178.88 215.461 178.63 215.461 178.38C215.284 178.39 215.106 178.399 214.929 178.409C214.449 178.435 214.446 179.185 214.929 179.159C215.106 179.149 215.284 179.14 215.461 179.13C215.94 179.104 215.946 178.366 215.461 178.38C210.149 178.535 204.835 178.299 199.557 177.675C199.078 177.618 199.082 178.368 199.557 178.425Z" fill="white"/>
<path d="M199.455 189.676C204.717 190.416 210.012 190.874 215.323 191.039C215.806 191.054 215.805 190.304 215.323 190.289C210.08 190.127 204.849 189.684 199.654 188.953C199.182 188.887 198.978 189.609 199.455 189.676Z" fill="white"/>
<path d="M199.204 193.286C204.855 194.064 210.553 194.365 216.255 194.169C216.736 194.152 216.738 193.402 216.255 193.419C210.624 193.613 204.986 193.332 199.404 192.563C198.931 192.497 198.727 193.22 199.204 193.286Z" fill="white"/>
<path d="M196.633 172.293H190.564V178.362H196.633V172.293Z" fill="white"/>
<path d="M196.815 187.415L190.757 187.047L190.388 193.105L196.447 193.473L196.815 187.415Z" fill="white"/>
<path d="M191.496 175.107C191.972 175.596 192.449 176.086 192.925 176.575C193.145 176.801 193.375 177.12 193.699 177.192C194.039 177.268 194.315 177.044 194.471 176.763C194.849 176.084 195.149 175.351 195.472 174.645C195.569 174.434 195.665 174.222 195.761 174.01C195.844 173.826 195.814 173.606 195.626 173.497C195.465 173.403 195.197 173.446 195.113 173.632C194.904 174.094 194.692 174.555 194.479 175.015C194.326 175.345 194.172 175.674 194.014 176.001C193.948 176.137 193.885 176.277 193.81 176.408C193.805 176.417 193.766 176.467 193.768 176.476C193.773 176.503 193.71 176.414 193.782 176.471C193.778 176.468 193.887 176.461 193.883 176.47C193.881 176.476 193.824 176.424 193.821 176.421C193.709 176.321 193.609 176.204 193.504 176.097C193.011 175.59 192.518 175.084 192.025 174.577C191.689 174.23 191.159 174.761 191.496 175.107Z" fill="#4973ED"/>
<path d="M191.242 189.706C191.667 190.266 192.092 190.826 192.517 191.386C192.7 191.627 192.873 191.943 193.162 192.068C193.501 192.215 193.812 192.03 194.015 191.759C194.485 191.131 194.873 190.428 195.284 189.761C195.411 189.555 195.537 189.349 195.663 189.142C195.915 188.729 195.267 188.352 195.015 188.764C194.754 189.193 194.49 189.62 194.225 190.046C194.029 190.362 193.831 190.677 193.63 190.989C193.555 191.106 193.46 191.22 193.395 191.342C193.375 191.379 193.304 191.398 193.401 191.383C193.491 191.369 193.446 191.394 193.434 191.354C193.425 191.324 193.365 191.27 193.344 191.243C193.291 191.175 193.24 191.105 193.187 191.037C192.754 190.467 192.322 189.898 191.889 189.328C191.767 189.167 191.566 189.083 191.376 189.193C191.218 189.286 191.119 189.544 191.242 189.706Z" fill="#4973ED"/>
<path d="M263.363 71.6317C270.184 70.9297 277.005 70.2277 283.827 69.5257C284.302 69.4767 284.307 68.7267 283.827 68.7757C277.006 69.4777 270.185 70.1797 263.363 70.8817C262.887 70.9307 262.882 71.6807 263.363 71.6317Z" fill="white"/>
<path d="M263.173 75.3206C270.602 74.4556 278.053 73.7976 285.519 73.3456C285.486 73.1006 285.453 72.8546 285.419 72.6086C285.225 72.6766 285.032 72.7456 284.838 72.8136C284.386 72.9726 284.58 73.6976 285.037 73.5366C285.231 73.4686 285.425 73.3996 285.618 73.3316C285.993 73.1996 285.966 72.5676 285.518 72.5946C278.052 73.0456 270.601 73.7046 263.172 74.5696C262.7 74.6256 262.694 75.3766 263.173 75.3206Z" fill="white"/>
<path d="M264.249 79.0573C270.49 79.0123 276.714 78.5503 282.894 77.6843C283.37 77.6173 283.167 76.8953 282.695 76.9613C276.582 77.8173 270.421 78.2633 264.249 78.3073C263.767 78.3103 263.766 79.0603 264.249 79.0573Z" fill="white"/>
<path d="M266.831 85.1116C271.563 84.6756 276.294 84.2386 281.026 83.8026C281.503 83.7586 281.507 83.0086 281.026 83.0526C276.294 83.4896 271.563 83.9256 266.831 84.3616C266.354 84.4056 266.35 85.1566 266.831 85.1116Z" fill="white"/>
<path d="M354.261 235.378C362.639 236.408 371.124 236.109 379.535 236.689C380.017 236.722 380.015 235.972 379.535 235.939C371.124 235.359 362.639 235.659 354.261 234.628C353.783 234.569 353.787 235.319 354.261 235.378Z" fill="white"/>
<path d="M354.292 241.809C362.706 242.279 371.12 242.75 379.534 243.22C380.016 243.247 380.015 242.497 379.534 242.47C371.12 241.999 362.706 241.529 354.292 241.059C353.81 241.032 353.812 241.782 354.292 241.809Z" fill="white"/>
<path d="M84.8057 219.312L52.7568 222.387L55.8316 254.436L87.8805 251.361L84.8057 219.312Z" fill="#FFC057"/>
<path d="M57.6174 228.47C65.4414 227.795 73.2974 227.732 81.0944 226.73C81.5664 226.669 81.5724 225.919 81.0944 225.98C73.2974 226.983 65.4404 227.045 57.6174 227.72C57.1404 227.761 57.1354 228.511 57.6174 228.47Z" fill="white"/>
<path d="M58.3094 232.891C64.6854 232.301 71.0575 233.215 77.4245 232.421C77.8975 232.362 77.9035 231.611 77.4245 231.671C71.0575 232.465 64.6854 231.551 58.3094 232.141C57.8324 232.185 57.8284 232.935 58.3094 232.891Z" fill="white"/>
<path d="M59.4966 247.79C67.3376 247.038 75.1796 246.285 83.0206 245.533C83.4966 245.487 83.5016 244.737 83.0206 244.783C75.1796 245.535 67.3376 246.288 59.4966 247.04C59.0206 247.086 59.0156 247.836 59.4966 247.79Z" fill="white"/>
<path d="M129.229 76.0427L124.951 76.6172L126.466 87.8999L130.744 87.3254L129.229 76.0427Z" fill="#4973ED"/>
<path d="M412.573 152.953H408.257V164.337H412.573V152.953Z" fill="#4973ED"/>
<path d="M340.459 130.223H336.143V141.607H340.459V130.223Z" fill="#4973ED"/>
<path d="M252.045 226.652H247.729V238.036H252.045V226.652Z" fill="#4973ED"/>
<path d="M273.364 53.7666L269.151 54.707L271.632 65.8178L275.844 64.8774L273.364 53.7666Z" fill="#4973ED"/>
<path d="M153.722 168.301L149.648 166.875L145.887 177.62L149.961 179.046L153.722 168.301Z" fill="#4973ED"/>
</svg>
